<svg id="Layer_1" data-name="Layer 1" xmlns="http://www.w3.org/2000/svg" viewBox="0 0 912.16 848.89"><defs><style>.cls-1{fill:#007bff;}.cls-2{fill:#37393f;}</style></defs><g id="circle"><polygon class="cls-1" points="912.16 387 684.12 774 228.04 774 0 387 228.04 0 684.12 0 912.16 387"/></g><g id="mu"><g id="tail"><path class="cls-2" d="M304.16,463c-.74,20.56-3.05,73.21-10.11,124.62-3.9,28.38-8.12,47.61-12.8,65-2.37,8.82-5.16,18-8.55,27.84-13.07,38-29.57,67-41.71,88.27-25.17,44.2-43.16,64.11-38,74.94,3.52,7.33,17.59,5.08,25.31,4.15,19.43-2.33,33.2-14.76,48.82-28.86a223.62,223.62,0,0,0,16-16,248.69,248.69,0,0,0,23-30c3.68-5.58,13.7-21.16,25-46,11.16-24.54,17.14-44,22-60,5.36-17.64,13.42-44.56,19-81a527.84,527.84,0,0,0,6-88"/></g><path class="cls-2" d="M620.16,485c.79,15.73,1,28.45,1,37,0,7.56,0,18.55,1,33,1.74,23.87,4.46,28.36,8,30,4.61,2.13,12.37.23,17-2,4.24-2,8.28-5.55,11.52-4a4.51,4.51,0,0,1,1.87,1.75c4.23,7,1.88,29.56-4.44,43.52-11.64,25.73-37.65,24.19-54.75,10.9-22.92-17.82-25-41.24-42.5-43.75-7-1-13.26,2.17-17.51,5"/><path class="cls-2" d="M303.76,482.89V301.13q0-23.2,10.44-34.81t27.46-11.6q17.79,0,28.23,11.6t10.44,34.81V487q0,31.72,7.09,53t25.14,33q18,11.73,50.53,11.73,44.87,0,63.43-23.85t18.56-72.32V301.13q0-23.46,10.31-34.94T583,254.72q17.26,0,28,11.47t10.7,34.94V482.89q0,44.34-8.64,74T580.4,609a126.67,126.67,0,0,1-48,27.85q-27.35,8.76-63.94,8.76-43.57,0-75-9.41T342.16,607Q322.32,587.28,313,556.47T303.76,482.89Z"/><g id="Layer_4" data-name="Layer 4"><g id="Layer_6" data-name="Layer 6"><path class="cls-2" d="M590.39,122.07l24.87,23.19C632,160.9,621,189,598,189H548.29c-22.93,0-34-28.1-17.23-43.74l24.87-23.19A25.26,25.26,0,0,1,590.39,122.07Z"/></g><path class="cls-2" d="M333.14,132.85h225a28,28,0,0,1,28,28h0a28,28,0,0,1-28,28h-225a28,28,0,0,1-28-28h0A28,28,0,0,1,333.14,132.85Z"/><g id="Layer_5" data-name="Layer 5"><path class="cls-2" d="M534.62,72.86l71.54,64.07a9.27,9.27,0,0,1,.72,13.1,9,9,0,0,1-1.84,1.58L563.3,178.82a9.27,9.27,0,0,1-12.83-2.7,9.39,9.39,0,0,1-1.05-2.19L519.63,82.65C516.68,73.63,527.56,66.53,534.62,72.86Z"/></g></g></g></svg>