<svg id="Layer_1" data-name="Layer 1" xmlns="http://www.w3.org/2000/svg" viewBox="0 0 132 243.72"><defs><style>.cls-1{fill:#a66c00;}.cls-2{fill:#e6e6e6;}.cls-3{fill:#fff;}</style></defs><path class="cls-1" d="M511.55,503c-21.61-.33-42.44,11.27-54.52,28.8A68,68,0,0,0,445.55,569a66,66,0,1,0,132,0C577.55,530.42,543.71,503.5,511.55,503Zm-.28,126.55A60.27,60.27,0,0,1,451,569.28a62.17,62.17,0,0,1,10.48-34c11-16,30.06-26.59,49.79-26.29,29.37.45,60.27,25,60.27,60.27A60.27,60.27,0,0,1,511.27,629.55Z" transform="translate(-445.55 -391.27)"/><rect class="cls-2" x="466.54" y="390" width="36" height="101" rx="9.59" transform="translate(-600.88 -89.99) rotate(-30)"/><rect class="cls-2" x="39" y="101.73" width="52" height="5" rx="1.62"/><rect class="cls-2" x="518.77" y="390" width="36" height="101" rx="9.59" transform="translate(-153.38 -600.65) rotate(30)"/><rect class="cls-2" x="51" y="83.43" width="27" height="15"/><path class="cls-1" d="M566,569.78a54.77,54.77,0,1,1-109.54,0A56.48,56.48,0,0,1,466,538.9c10-14.55,27.31-24.17,45.24-23.89C537.91,515.42,566,537.76,566,569.78Z" transform="translate(-445.55 -391.27)"/><path class="cls-3" d="M525.32,544.47l-14.56,23.41-4.8-2.23a9.38,9.38,0,0,1,2.44-.83,13.27,13.27,0,0,1,2.61-.25,18.82,18.82,0,0,1,6,.62,13.26,13.26,0,0,1,8.9,7.82,19.57,19.57,0,0,1,1.36,7.78,18.48,18.48,0,0,1-2.64,10,18,18,0,0,1-7,6.49,20.4,20.4,0,0,1-9.63,2.28A20.79,20.79,0,0,1,500,598a18.86,18.86,0,0,1-6.49-4.27l4.14-6.7a13.17,13.17,0,0,0,4.26,3.39,11.88,11.88,0,0,0,5.75,1.49,11.46,11.46,0,0,0,5.62-1.4,10.66,10.66,0,0,0,4.1-4,12,12,0,0,0,1.53-6.17,9.77,9.77,0,0,0-2.81-7.4,10.55,10.55,0,0,0-7.62-2.69,20.68,20.68,0,0,0-4,.33,19.19,19.19,0,0,0-3,.83l-.34-.25,12.91-20,2.48,1.07H496.69v-7.69Z" transform="translate(-445.55 -391.27)"/></svg>