<svg id="Layer_1" data-name="Layer 1" xmlns="http://www.w3.org/2000/svg" viewBox="0 0 132 243.73"><defs><style>.cls-1{fill:#ffc000;}.cls-2{fill:#ffc700;}.cls-3{fill:#e6e6e6;}.cls-4{fill:#37b2db;}.cls-5{fill:#fff;}</style></defs><path class="cls-1" d="M511.55,503c-21.6-.33-42.44,11.26-54.52,28.79A68.07,68.07,0,0,0,445.55,569a66,66,0,1,0,132,0C577.55,530.41,543.71,503.49,511.55,503Zm-.28,126.55A60.27,60.27,0,0,1,451,569.28a62.17,62.17,0,0,1,10.48-34c11-16,30.06-26.6,49.79-26.29,29.37.45,60.27,25,60.27,60.27A60.27,60.27,0,0,1,511.27,629.55Z" transform="translate(-445.55 -391.27)"/><path class="cls-2" d="M529.55,594.67a4,4,0,0,1-4,4h-27a4,4,0,0,1,0-8h8V554.87l-4.78,1a2.7,2.7,0,0,1-2.47-4.53l8.41-8.53.08-.08a2.18,2.18,0,0,1,.25-.28,5.07,5.07,0,0,1,8.65,3.58v44.67h8.91A4,4,0,0,1,529.55,594.67Z" transform="translate(-445.55 -391.27)"/><rect class="cls-3" x="466.55" y="390" width="36" height="101" rx="9.59" transform="translate(-600.88 -89.98) rotate(-30)"/><rect class="cls-3" x="39" y="101.73" width="52" height="5" rx="1.62"/><rect class="cls-3" x="518.78" y="390" width="36" height="101" rx="9.59" transform="translate(-153.38 -600.64) rotate(30)"/><rect class="cls-3" x="51" y="83.43" width="27" height="15"/><path class="cls-4" d="M529.55,594.67a4,4,0,0,1-4,4h-27a4,4,0,0,1,0-8h8V554.87l-4.78,1a2.7,2.7,0,0,1-2.47-4.53l8.41-8.53.08-.08a2.18,2.18,0,0,1,.25-.28,5.07,5.07,0,0,1,8.65,3.58v44.67h8.91A4,4,0,0,1,529.55,594.67Z" transform="translate(-445.55 -391.27)"/><path class="cls-1" d="M511.23,515C493.3,514.73,476,524.35,466,538.9a56.5,56.5,0,0,0-9.52,30.88,54.77,54.77,0,1,0,109.54,0C566,537.76,537.92,515.42,511.23,515Zm17.16,82.47a4,4,0,0,1-2.82,1.17h-27a4,4,0,0,1,0-8h8V554.87l-4.78,1a2.7,2.7,0,0,1-2.47-4.53l8.41-8.53.08-.08a2.18,2.18,0,0,1,.25-.28,5.07,5.07,0,0,1,8.65,3.58v44.67h8.91a4,4,0,0,1,2.82,6.8Z" transform="translate(-445.55 -391.27)"/><path class="cls-2" d="M529.55,594.67a4,4,0,0,1-4,4h-27a4,4,0,0,1,0-8h8V554.87l-4.78,1a2.7,2.7,0,0,1-2.47-4.53l8.41-8.53.08-.08a2.18,2.18,0,0,1,.25-.28,5.07,5.07,0,0,1,8.65,3.58v44.67h8.91A4,4,0,0,1,529.55,594.67Z" transform="translate(-445.55 -391.27)"/><path class="cls-5" d="M501.7,544.59h14.23V599h-8V552.37H501.7Z" transform="translate(-445.55 -391.27)"/></svg>