<svg id="Layer_1" data-name="Layer 1" xmlns="http://www.w3.org/2000/svg" viewBox="0 0 132 243.72"><defs><style>.cls-1{fill:#b3b3b3;}.cls-2{fill:#e6e6e6;}.cls-3{fill:#fff;}</style></defs><path class="cls-1" d="M511.55,503c-21.61-.33-42.44,11.27-54.52,28.8A68,68,0,0,0,445.55,569a66,66,0,1,0,132,0C577.55,530.42,543.71,503.5,511.55,503Zm-.28,126.55A60.27,60.27,0,0,1,451,569.28a62.17,62.17,0,0,1,10.48-34c11-16,30.06-26.59,49.79-26.29,29.37.45,60.27,25,60.27,60.27A60.27,60.27,0,0,1,511.27,629.55Z" transform="translate(-445.55 -391.27)"/><rect class="cls-2" x="466.54" y="390" width="36" height="101" rx="9.59" transform="translate(-600.88 -89.99) rotate(-30)"/><rect class="cls-2" x="39" y="101.73" width="52" height="5" rx="1.62"/><rect class="cls-2" x="518.77" y="390" width="36" height="101" rx="9.59" transform="translate(-153.38 -600.65) rotate(30)"/><rect class="cls-2" x="51" y="83.43" width="27" height="15"/><path class="cls-1" d="M566,569.78a54.77,54.77,0,1,1-109.54,0A56.48,56.48,0,0,1,466,538.9c10-14.55,27.31-24.17,45.24-23.89C537.91,515.42,566,537.76,566,569.78Z" transform="translate(-445.55 -391.27)"/><path class="cls-3" d="M492.05,598q5.29-5.13,10.1-10.09t8.6-9.6a51.94,51.94,0,0,0,6-8.94,18.15,18.15,0,0,0,2.23-8.43,11.31,11.31,0,0,0-.86-4.64,9.59,9.59,0,0,0-2.28-3.18,8.93,8.93,0,0,0-3.23-1.9,11.52,11.52,0,0,0-3.8-.63,11.06,11.06,0,0,0-4.63.87,8.49,8.49,0,0,0-3.07,2.28,10,10,0,0,0-1.73,3,9.05,9.05,0,0,0-.58,3.1,13.23,13.23,0,0,0,.87,4.92,12.59,12.59,0,0,0,2.35,3.85L497.18,573a10.46,10.46,0,0,1-3.35-3.48,19.62,19.62,0,0,1-2.11-4.84,17.25,17.25,0,0,1-.74-4.59,16.87,16.87,0,0,1,2.23-8.48,16.64,16.64,0,0,1,6.5-6.33,21,21,0,0,1,10.46-2.4,16.74,16.74,0,0,1,9.06,2.4,16.91,16.91,0,0,1,6,6.37,17.84,17.84,0,0,1,2.15,8.6,20.93,20.93,0,0,1-1.65,8.11,39.23,39.23,0,0,1-4.43,7.82q-2.77,3.86-6.08,7.65t-6.62,7.61L505,590.28H529.2V598Z" transform="translate(-445.55 -391.27)"/></svg>