<svg id="Layer_1" data-name="Layer 1" xmlns="http://www.w3.org/2000/svg" viewBox="0 0 386 386"><defs><style>.cls-1{fill:#37b2db;}.cls-2{fill:#fff;}</style></defs><rect class="cls-1" width="386" height="386"/><rect class="cls-2" x="92" y="82" width="146" height="24" rx="11.27"/><rect class="cls-2" x="92" y="94" width="24" height="198"/><rect class="cls-2" x="214" y="83.76" width="24" height="60.24" rx="9.5"/><rect class="cls-2" x="522.01" y="446.64" width="22.07" height="120.09" rx="9.5" transform="translate(-281.64 726.72) rotate(-90)"/><path class="cls-2" d="M610.38,512.42,607,515.68a9.11,9.11,0,0,1-12.66,0l-41.54-40.52a8.59,8.59,0,0,1,0-12.35l3.34-3.25a9.11,9.11,0,0,1,12.66,0l41.54,40.51A8.59,8.59,0,0,1,610.38,512.42Z" transform="translate(-308 -313)"/><path class="cls-2" d="M605.07,498.69l3.34,3.25a8.59,8.59,0,0,1,0,12.35l-39.55,38.57a9.11,9.11,0,0,1-12.66,0l-3.33-3.25a8.58,8.58,0,0,1,0-12.35l39.54-38.57A9.11,9.11,0,0,1,605.07,498.69Z" transform="translate(-308 -313)"/><rect class="cls-2" x="92" y="280" width="146" height="24" rx="11.27"/><rect class="cls-2" x="214.07" y="243.45" width="24" height="60.24" rx="9.5"/></svg>