<svg id="Layer_1" data-name="Layer 1" xmlns="http://www.w3.org/2000/svg" viewBox="0 0 386 386"><defs><style>.cls-1{fill:none;}.cls-2{fill:#fff;}</style></defs><rect class="cls-1" width="386" height="386"/><path class="cls-2" d="M514.08,393.56A119.43,119.43,0,1,0,633.5,513,119.43,119.43,0,0,0,514.08,393.56Zm1.11,172.89c-27,0-48.92-23.05-48.92-51.5s21.9-51.5,48.92-51.5,48.93,23.06,48.93,51.5S542.22,566.45,515.19,566.45Z" transform="translate(-323 -323)"/><path class="cls-1" d="M564.12,515c0,28.45-21.9,51.5-48.93,51.5S466.27,543.4,466.27,515s21.9-51.5,48.92-51.5S564.12,486.51,564.12,515Z" transform="translate(-323 -323)"/><rect class="cls-2" x="165.07" y="51.45" width="52.02" height="36.09" rx="5.98"/><rect class="cls-2" x="166.13" y="291.36" width="52.02" height="36.09" rx="5.98"/><rect class="cls-2" x="607.49" y="494.94" width="52.02" height="36.09" rx="5.98" transform="translate(823.48 -443.51) rotate(90)"/><rect class="cls-2" x="368.65" y="494.94" width="52.02" height="36.09" rx="5.98" transform="translate(584.64 -204.67) rotate(90)"/><rect class="cls-2" x="403.96" y="411.37" width="52.02" height="36.09" rx="5.98" transform="translate(-500.71 106.81) rotate(-45)"/><rect class="cls-2" x="571.64" y="579.76" width="52.02" height="36.09" rx="5.98" transform="translate(-570.67 274.7) rotate(-45)"/><rect class="cls-2" x="408.16" y="579.76" width="52.02" height="36.09" rx="5.98" transform="translate(-4.54 1004.53) rotate(-135)"/><rect class="cls-2" x="571.64" y="409.92" width="52.02" height="36.09" rx="5.98" transform="translate(394.63 830.18) rotate(-135)"/></svg>