<svg id="Layer_1" data-name="Layer 1" xmlns="http://www.w3.org/2000/svg" viewBox="0 0 386 386"><defs><style>.cls-1{fill:#37b2db;}.cls-2{fill:#fff;}.cls-3{fill:none;stroke:#fff;stroke-miterlimit:10;stroke-width:12px;}</style></defs><rect class="cls-1" width="386" height="386"/><circle class="cls-2" cx="192.25" cy="193.58" r="30.23"/><path class="cls-3" d="M405,652" transform="translate(-315 -315)"/><path class="cls-3" d="M596.77,646.77" transform="translate(-315 -315)"/><path class="cls-3" d="M579.13,492.14a339.34,339.34,0,0,0-98.53-56.49c-5.86-2.14-96.73-34.7-110.35-11.82-2.36,4-8.48,19.82,40.73,70.94" transform="translate(-315 -315)"/><path class="cls-3" d="M435.79,519.34a334.72,334.72,0,0,0,97.86,56.46c5.7,2.09,96.58,34.83,110.35,11.82,2.34-3.91,8.66-19.79-40-70.91" transform="translate(-315 -315)"/><path class="cls-3" d="M408.91,472" transform="translate(-315 -315)"/><path class="cls-3" d="M481.1,576.1a334.72,334.72,0,0,0,97.82-56.51c4.66-3.9,78.46-66.23,65.42-89.66-2.22-4-12.81-17.39-81.44-.77" transform="translate(-315 -315)"/><path class="cls-3" d="M529.24,439.11a334.43,334.43,0,0,0-97.82,56.52c-4.67,3.89-78.46,66.22-65.42,89.66,2.22,4,12.81,17.39,81.44.77" transform="translate(-315 -315)"/><path class="cls-3" d="M554.68,562.91a334.35,334.35,0,0,0,0-113c-1-6-18.12-101.06-44.94-101.48-4.55-.08-21.47,2.39-41.38,70.14" transform="translate(-315 -315)"/><path class="cls-3" d="M462.59,455.5a334.4,334.4,0,0,0,0,113c1,6,18.12,101,44.94,101.48,4.55.07,21.46-2.4,41.38-70.14" transform="translate(-315 -315)"/></svg>