<svg id="Layer_1" data-name="Layer 1" xmlns="http://www.w3.org/2000/svg" viewBox="0 0 386 386"><defs><style>.cls-1,.cls-4,.cls-5{fill:none;}.cls-2{fill:#fff;}.cls-3{fill:#007bff;}.cls-4,.cls-5{stroke:#fff;stroke-miterlimit:10;}.cls-4{stroke-width:12px;}.cls-5{stroke-width:14px;}</style></defs><rect class="cls-1" width="386" height="386"/><path class="cls-2" d="M581.09,576.88l-.55,2L578.87,585a8.15,8.15,0,0,1-3.36,6,4,4,0,0,1-.6.42,6.3,6.3,0,0,1-.72.4c-.18.09-.39.18-.59.26a5.31,5.31,0,0,1-.56.2c-.22.08-.43.12-.65.18a5.08,5.08,0,0,1-1.08.18,7.76,7.76,0,0,1-1.67,0,2.4,2.4,0,0,1-.28,0l-148.09.1,43.8-159.57,2.2-8.05.23-.8.24-.87A8.07,8.07,0,0,1,472,418.2l.5-.23a1.06,1.06,0,0,1,.19-.06,3,3,0,0,1,.47-.17h.05a6.46,6.46,0,0,1,1.67-.35,8.48,8.48,0,0,1,1.95,0,8.09,8.09,0,0,1,5.86,3.78l55,87Z" transform="translate(-331 -312)"/><path class="cls-2" d="M603.29,615.07a8.25,8.25,0,0,1-4.66,6.79l-.5.23-.19.06a3.06,3.06,0,0,1-.48.17,0,0,0,0,1,0,0,8.5,8.5,0,0,1-2.35.33h-1.28l-170,.11a8.24,8.24,0,0,1-8.23-8.1,7.78,7.78,0,0,1,.27-2.32l1.31-4.77a8.25,8.25,0,0,0,2.61.42l161.2-.12-.37-.59a8.32,8.32,0,0,0,9.64-3c.13-.19.25-.39.37-.59a4.87,4.87,0,0,0,.28-.56,5.69,5.69,0,0,0,.32-.77c.09-.23.16-.47.23-.72l.17-.67,1.39-5.24L602,610A8.16,8.16,0,0,1,603.29,615.07Z" transform="translate(-331 -312)"/><path class="cls-2" d="M624.87,417.29,581.09,576.88l-.55,2L578.87,585a8.15,8.15,0,0,1-3.36,6,4,4,0,0,1-.6.42,6.3,6.3,0,0,1-.72.4c-.18.09-.39.18-.59.26a5.31,5.31,0,0,1-.56.2c-.22.08-.43.12-.65.18a5.08,5.08,0,0,1-1.08.18l0,0-41.71-66-61-96.54a8.19,8.19,0,0,1-1.27-5,6.41,6.41,0,0,1,.13-1A8.3,8.3,0,0,1,472,418.2l.5-.23a1.06,1.06,0,0,1,.19-.06,3,3,0,0,1,.47-.17h.05a8.39,8.39,0,0,1,1.7-.31c.21,0,.43,0,.65,0h7.06Z" transform="translate(-331 -312)"/><path class="cls-2" d="M654.7,427.7,603.29,615.07l-.45,1.6a8.07,8.07,0,0,1-4.21,5.19l-.5.23-.19.06a3.06,3.06,0,0,1-.48.17,0,0,0,0,1,0,0,8.42,8.42,0,0,1-3.63.33,8.08,8.08,0,0,1-5.86-3.78l-6.95-11-.37-.59a8.32,8.32,0,0,0,9.64-3c.13-.19.25-.39.37-.59a4.87,4.87,0,0,0,.28-.56,5.69,5.69,0,0,0,.32-.77c.09-.23.16-.47.23-.72l.17-.67,1.39-5.24,47-178.47h6.75A8.24,8.24,0,0,1,654.7,427.7Z" transform="translate(-331 -312)"/><path class="cls-3" d="M590.25,604.3a8,8,0,0,1-6.74,3.59H581l-.37-.59A8.32,8.32,0,0,0,590.25,604.3Z" transform="translate(-331 -312)"/><path class="cls-2" d="M630.28,397.61l-1.5,5.44-3.91,14.24L581.09,576.88l-.55,2L578.87,585l-.45,1.6a8.13,8.13,0,0,1-2.91,4.37,4,4,0,0,1-.6.42,6.3,6.3,0,0,1-.72.4c-.18.09-.39.18-.59.26a5.31,5.31,0,0,1-.56.2c-.22.08-.43.12-.65.18a5.08,5.08,0,0,1-1.08.18,7.76,7.76,0,0,1-1.67,0,2.4,2.4,0,0,1-.28,0,8.06,8.06,0,0,1-5.85-3.78L465.07,433.11l-7-11.09L444.11,400a8.17,8.17,0,0,1,2.1-11,5.68,5.68,0,0,1,.59-.41,7.38,7.38,0,0,1,.72-.41l.59-.26.57-.2a5,5,0,0,1,.64-.17,8.29,8.29,0,0,1,.87-.13h0a8.46,8.46,0,0,1,.87-.05h1.28l170-.11A8.24,8.24,0,0,1,630.28,397.61Z" transform="translate(-331 -312)"/><path class="cls-2" d="M578.87,585a8.15,8.15,0,0,1-3.36,6,4,4,0,0,1-.6.42,6.3,6.3,0,0,1-.72.4c-.18.09-.39.18-.59.26a5.31,5.31,0,0,1-.56.2c-.22.08-.43.12-.65.18a9.9,9.9,0,0,1-1.11.14c-.2,0-.42,0-.63,0h-1.29l-148.09.1h-8.15l-13.74,0a8.1,8.1,0,0,1-2.22-.31h0a8.24,8.24,0,0,1-5.71-10.12L442.85,394.9l.45-1.6a8.21,8.21,0,0,1,2.91-4.37,5.68,5.68,0,0,1,.59-.41,7.38,7.38,0,0,1,.72-.41l.59-.26.57-.2a5,5,0,0,1,.64-.17,8.29,8.29,0,0,1,.87-.13h0a8.59,8.59,0,0,1,2.15-.05,8.08,8.08,0,0,1,5.86,3.78l8,12.69.06.07,8.55,13.54,0,0L577.6,579.94A8.24,8.24,0,0,1,578.87,585Z" transform="translate(-331 -312)"/><path class="cls-2" d="M387.55,602.12Z" transform="translate(-331 -312)"/><path class="cls-4" d="M419.31,542.71" transform="translate(-331 -312)"/><path class="cls-5" d="M411,544.79c-6,23.11-9.43,33.14-11.47,37.55a29.5,29.5,0,0,0-2.08,6.25c-.63,2.91-1.52,7,0,11.48,1.4,4.15,4.2,6.56,6.25,8.34a30.29,30.29,0,0,0,10.95,5.73c3.37,1,6.27,1.41,17.21,1.57,4.07.06,9.38.09,15.64,0" transform="translate(-331 -312)"/></svg>