<svg id="Layer_1" data-name="Layer 1" xmlns="http://www.w3.org/2000/svg" viewBox="0 0 386 386"><defs><style>.cls-1{fill:#37b2db;}.cls-2{fill:#fff;}</style></defs><rect class="cls-1" width="386" height="386"/><rect class="cls-2" x="159" y="72" width="69" height="268" rx="14.99"/><rect class="cls-2" x="72" y="139" width="69" height="201" rx="15.01"/><rect class="cls-2" x="247" y="193" width="69" height="147" rx="15.12"/><path class="cls-1" d="M505.81,420.71h11.71V463H510V427.88h-4.23Z" transform="translate(-318.55 -319.45)"/><path class="cls-1" d="M409.62,529.45l7.68-7.81q3.7-3.78,6.65-7.29a36.18,36.18,0,0,0,4.64-6.88,14.32,14.32,0,0,0,1.7-6.44,7.77,7.77,0,0,0-.58-3.13,5.85,5.85,0,0,0-1.63-2.24,7.76,7.76,0,0,0-2.33-1.38,8,8,0,0,0-2.82-.48,7.13,7.13,0,0,0-5.38,2.15,6.15,6.15,0,0,0-1.31,2,5.73,5.73,0,0,0-.41,2.14,9.76,9.76,0,0,0,.67,3.75,9.14,9.14,0,0,0,1.82,2.85l-4.54,4.16A8.08,8.08,0,0,1,411,508a15.57,15.57,0,0,1-2.37-7.74,12.7,12.7,0,0,1,1.83-6.56,13.72,13.72,0,0,1,5.31-5.06,17,17,0,0,1,8.42-1.95,13.8,13.8,0,0,1,7.32,1.89,13.32,13.32,0,0,1,4.84,5,13.83,13.83,0,0,1,1.72,6.78,16.48,16.48,0,0,1-1.12,6,28.57,28.57,0,0,1-3,5.76,65.58,65.58,0,0,1-4.25,5.6q-2.34,2.75-4.77,5.63l-3.26-1.09h17.47v7.17Z" transform="translate(-318.55 -319.45)"/><path class="cls-1" d="M611.93,543.75,601.3,562,597,559.82a12.2,12.2,0,0,1,1.72-.51,8.47,8.47,0,0,1,1.8-.19,15.22,15.22,0,0,1,4.54.54,10.76,10.76,0,0,1,4,2.08,10.23,10.23,0,0,1,2.88,4,15.46,15.46,0,0,1,1.09,6.21,13.82,13.82,0,0,1-7.58,12.83,16.14,16.14,0,0,1-7.46,1.76,17.08,17.08,0,0,1-6.3-1.28,14.21,14.21,0,0,1-5.22-3.4l3.77-6.14a10.63,10.63,0,0,0,3.21,2.5,8.91,8.91,0,0,0,4.35,1.15,7.62,7.62,0,0,0,3.65-.93,7.39,7.39,0,0,0,2.81-2.69,7.88,7.88,0,0,0,1.09-4.25,7.09,7.09,0,0,0-1.92-5.25,7.18,7.18,0,0,0-5.31-1.92,16.84,16.84,0,0,0-3,.22,12.15,12.15,0,0,0-2.15.61l-.19-.25,9-14.92,2.24.9H589.4v-7.11Z" transform="translate(-318.55 -319.45)"/></svg>