<?xml version="1.0" encoding="utf-8"?>
<!-- Generator: Adobe Illustrator 24.2.1, SVG Export Plug-In . SVG Version: 6.00 Build 0)  -->
<svg version="1.1" id="Layer_1" xmlns="http://www.w3.org/2000/svg" xmlns:xlink="http://www.w3.org/1999/xlink" x="0px" y="0px"
	 viewBox="0 0 386 386" style="enable-background:new 0 0 386 386;" xml:space="preserve">
<style type="text/css">
	.st0{fill:#37B2DB;}
	.st1{fill:#FFFFFF;}
</style>
<rect x="0" y="-0.5" class="st0" width="386" height="386"/>
<ellipse class="st1" cx="193.2" cy="84.4" rx="71.6" ry="76.7"/>
<ellipse class="st1" cx="284.8" cy="168.3" rx="74.4" ry="79.7"/>
<ellipse class="st1" cx="122.3" cy="212.1" rx="80.7" ry="86.4"/>
<ellipse class="st1" cx="253.3" cy="244.8" rx="63.7" ry="67.7"/>
<ellipse class="st1" cx="93.8" cy="125.9" rx="61.7" ry="66.1"/>
<ellipse class="st1" cx="181.8" cy="168.2" rx="78.6" ry="84"/>
<polygon class="st0" points="278.7,205 269.9,182.5 185.8,220.3 194.5,242.8 "/>
<polygon class="st0" points="121.3,117.2 110.3,137.5 185.1,183.9 196,163.5 "/>
<path class="st0" d="M215.3,288.9c4.9,27.4,7.4,41,11.4,49.3c6.7,13.9,17.2,28.1,12.4,35.2c-1.4,2.1-3.7,2.8-5,3.1
	c-15.3,4.3-30.7,2.3-44,2.1c-12.3-0.2-28.7,1.2-45-3.1c-1.4-0.4-3.7-1-5-3.1c-4.1-6.9,8.8-20.2,16.9-35.3
	c5.8-10.7,7.8-23.3,11.4-48.1c6.5-44.9,6.9-85,7.3-135.6c0.1-7.2,0.4-14.4,0.4-21.6c0,0,0.2-5.9,1-25c0.3-6.9,0.5-10.4,2-14
	c0.7-1.7,5-12,12.1-12c6.9,0,11.3,9.7,11.9,11c2.2,4.8,2,8.7,2,16c0,2.3,0,4.7,0,7c0,0,0,4.6,0,13c0,10.6,0.9,23.6,1,26
	C209,204,206.2,237.7,215.3,288.9z"/>
<ellipse transform="matrix(0.1278 -0.9918 0.9918 0.1278 46.8995 440.9347)" class="st0" cx="274.2" cy="193.8" rx="12.2" ry="11.5"/>
<ellipse class="st0" cx="115.9" cy="127.5" rx="10.9" ry="11.7"/>
<rect x="124.4" y="173.4" transform="matrix(0.356 -0.9345 0.9345 0.356 -125.2671 276.5235)" class="st0" width="27.2" height="111.5"/>
<ellipse transform="matrix(0.3608 -0.9326 0.9326 0.3608 -140.2546 214.1003)" class="st0" cx="86.1" cy="209.4" rx="13.6" ry="14.1"/>
<polygon class="st0" points="245.3,113.3 237.7,95.7 176.6,130.7 184.2,148.3 "/>
<ellipse transform="matrix(3.782119e-02 -0.9993 0.9993 3.782119e-02 127.7222 341.822)" class="st0" cx="241.4" cy="104.6" rx="9.9" ry="8.6"/>
<polygon class="st1" points="243.7,110.6 238.5,98.7 180.8,131.8 186,143.8 "/>
<ellipse transform="matrix(3.782119e-02 -0.9993 0.9993 3.782119e-02 127.4236 341.6408)" class="st1" cx="241.1" cy="104.7" rx="6.7" ry="5.8"/>
<rect x="127" y="175" transform="matrix(0.356 -0.9345 0.9345 0.356 -125.9035 274.4489)" class="st1" width="18.4" height="107.1"/>
<ellipse transform="matrix(0.3608 -0.9326 0.9326 0.3608 -140.2801 214.4023)" class="st1" cx="86.3" cy="209.5" rx="9.2" ry="9.6"/>
<path class="st1" d="M209.5,274.8c3.7,23.8,5.7,35.6,8.7,45.2c8.2,26.4,20.5,46.1,14.1,51.8c-0.7,0.7-1.5,0.9-2.2,1.1
	c-13.8,3.7-31.4,3.3-39,3.3c-7.3,0-25.9,0.4-40.1-3.3c-0.7-0.2-1.4-0.4-2.2-1.1c-6.1-5.6,7.4-25.5,16.3-52.9
	c3.3-10.2,5.2-21.4,8.7-44.1c8.3-54.4,4.3-90.4,6.3-129.1c0,0,1.2-23.6,1-37c0-0.2,0-1,0-2c0.1-4.4,0.2-9.6,2-14
	c0.5-1.1,3.6-8.5,8.1-8.4c4.4,0,7.4,7.2,7.9,8.4c1.9,4.6,2,10.3,2,14c0,0.5,0,0.9,0,1c-0.1,15.7,1,38,1,38
	C204.3,190.3,201.4,222.6,209.5,274.8z"/>
<polygon class="st1" points="276.8,201.5 270.9,186.2 190.1,222.5 196,237.8 "/>
<polygon class="st1" points="184,178.9 191.4,165.1 119.7,120.7 112.3,134.5 "/>
<ellipse transform="matrix(0.1278 -0.9918 0.9918 0.1278 46.5547 440.6587)" class="st1" cx="273.8" cy="193.9" rx="8.3" ry="7.8"/>
<ellipse class="st1" cx="116.1" cy="127.6" rx="7.4" ry="8"/>
<path class="st1" d="M370,115.5"/>
<path class="st0" d="M180,397.7"/>
<path class="st1" d="M-65,45.7"/>
<path class="st1" d="M451,80.7"/>
<path class="st0" d="M491,96.7"/>
</svg>
