<?xml version="1.0" encoding="utf-8"?>
<!-- Generator: Adobe Illustrator 24.2.1, SVG Export Plug-In . SVG Version: 6.00 Build 0)  -->
<svg version="1.1" id="Layer_1" xmlns="http://www.w3.org/2000/svg" xmlns:xlink="http://www.w3.org/1999/xlink" x="0px" y="0px"
	 viewBox="0 0 386 386" style="enable-background:new 0 0 386 386;" xml:space="preserve">
<style type="text/css">
	.st0{fill:#37B2DB;}
	.st1{fill:#FFFFFF;}
	.st2{fill:#FFFFFF;stroke:#37B2DB;stroke-width:2;stroke-miterlimit:10;}
</style>
<rect x="0" y="0" class="st0" width="386" height="386"/>
<path class="st1" d="M205.8,172c1.3,0.4-1.8,11.5-4.2,33.8c-0.8,7.5-4.5,43.3-0.8,82.3c0.3,3.5,0.5,5.3,0.8,7.8
	c3.4,26.6,5.1,39.9,7,46.2c0.1,0.4,0.5,1.5,0,2.5c-1.2,2.4-5.9,1.7-14.8,1.7c-9.7,0-14.4,1.3-16.4-1.7c-0.7-1-0.8-2-0.8-2.5
	c-5.3-58.3,7.6-107.6,7.6-107.6c1.9-7.3,3.5-12.6,4.7-16.6C194.2,199.9,203.6,171.4,205.8,172z"/>
<path class="st1" d="M201.7,227.9c-0.1-0.4,0-0.8,0-1c6-28,28.5-39.9,28.5-39.9c1.5-0.8,4.9-2.8,9.7-4c16.8-4.2,30.8-1.6,40.1,1
	c11.3,3,25.1,9.3,24.4,12.3c-0.1,0.6-0.8,0.9-1,1c-9.2,4.7-12.1,13.2-37.7,26.3c-3.2,1.6-4.8,2.5-7.1,3.4
	c-16.9,7.1-30.2,7.2-33.6,7.2C223.6,234.1,202.8,233.7,201.7,227.9z"/>
<path class="st1" d="M185.1,215.5c-0.4,0.3-0.7,0.4-1,0.4c-2.9,0.8-29.9,6-55.2-14.1c-12.2-9.7-18.2-20.8-19.8-23.8
	c-11.1-21.3-11.6-48.9-6.7-50.4c0.4-0.1,0.7,0,0.9,0c20.7,5.1,49.2,25.7,49.2,25.7l0,0c3.1,2.6,4.7,3.9,6.5,5.6
	c14.4,13.8,20.4,27.1,21.8,30.5C181.5,190.9,190.3,211.9,185.1,215.5z"/>
<path class="st2" d="M142.7,172.9c5.7,7,12.5,14.7,20.6,22.5c8.1,7.8,16,14.4,23.2,19.8"/>
<path class="st2" d="M258,200.8c-3.7,0.4-9.1,1.4-15.2,3.6c-5.5,2-9.7,4.3-17,9c-6.2,4-14.3,9.3-23.6,16.1"/>
<ellipse class="st0" cx="149.9" cy="159.4" rx="0.9" ry="0.9"/>
<ellipse class="st0" cx="258" cy="200.8" rx="0.9" ry="0.9"/>
</svg>
