<?xml version="1.0" encoding="utf-8"?>
<!-- Generator: Adobe Illustrator 24.2.1, SVG Export Plug-In . SVG Version: 6.00 Build 0)  -->
<svg version="1.1" id="Layer_1" xmlns="http://www.w3.org/2000/svg" xmlns:xlink="http://www.w3.org/1999/xlink" x="0px" y="0px"
	 viewBox="0 0 386 386" style="enable-background:new 0 0 386 386;" xml:space="preserve">
<style type="text/css">
	.st0{fill:#37B2DB;}
	.st1{fill:#FFFFFF;}
	.st2{fill:#36B2DB;}
</style>
<rect class="st0" width="386" height="386"/>
<ellipse class="st1" cx="197.2" cy="98.7" rx="52.6" ry="52.7"/>
<ellipse class="st1" cx="241.4" cy="186.9" rx="64.6" ry="64.7"/>
<ellipse class="st1" cx="147.2" cy="182.2" rx="69.2" ry="69.4"/>
<polygon class="st0" points="259.4,196.1 250.2,180.1 187.2,216.5 196.4,232.5 "/>
<polygon class="st0" points="134.6,140.4 125.4,156.4 188.3,192.8 197.5,176.8 "/>
<rect x="177.9" y="133.7" class="st0" width="27.1" height="198.3"/>
<ellipse class="st2" cx="191.5" cy="133.7" rx="13.5" ry="13.6"/>
<ellipse class="st0" cx="254.7" cy="188.2" rx="9.2" ry="9.2"/>
<ellipse class="st0" cx="130.1" cy="148.5" rx="9.2" ry="9.2"/>
<path class="st1" d="M201.9,229.7c0.6,28.4,3.7,56.7,9.4,84.5c2.5,12.3,7.8,35-1,40.7c-1.3,0.8-2.5,1.1-18.7,1
	c-15.2,0-16.4-0.2-17.7-1c-9.1-5.6-4.4-28.4-2.1-40.7c5.1-27.9,8.3-56.2,9.4-84.5v-96h20.8L201.9,229.7z"/>
<polygon class="st1" points="257.5,193.7 251.3,182.8 190.9,217.8 197.1,228.6 "/>
<polygon class="st1" points="187.4,189 193.7,178.1 133.3,143.1 127,154 "/>
<ellipse class="st1" cx="191.5" cy="133.7" rx="10.4" ry="10.4"/>
<ellipse class="st1" cx="254.4" cy="188.2" rx="6.2" ry="6.3"/>
<ellipse class="st1" cx="130.2" cy="148.6" rx="6.2" ry="6.3"/>
<rect x="0" class="st0" width="386" height="386"/>
<ellipse class="st1" cx="198.4" cy="115.6" rx="49.1" ry="49.2"/>
<ellipse class="st1" cx="239.7" cy="198" rx="60.3" ry="60.5"/>
<ellipse class="st1" cx="151.7" cy="193.6" rx="64.7" ry="64.8"/>
<polygon class="st0" points="256.4,206.6 247.8,191.7 189,225.7 197.6,240.7 "/>
<polygon class="st0" points="139.9,154.6 131.3,169.5 190.1,203.6 198.7,188.6 "/>
<rect x="180.4" y="148.3" class="st0" width="25.3" height="185.3"/>
<ellipse class="st2" cx="193" cy="148.3" rx="12.6" ry="12.7"/>
<ellipse class="st0" cx="252" cy="199.2" rx="8.6" ry="8.6"/>
<ellipse class="st0" cx="135.7" cy="162.1" rx="8.6" ry="8.6"/>
<path class="st1" d="M202.7,238c0.8,34.2,4.9,60.6,8.8,79c2.4,11.5,7.3,32.7-1,38c-1.2,0.8-2.4,1-17.5,1c-14.2,0-15.3-0.2-16.5-1
	c-8.5-5.3-4.1-26.5-1.9-38c3.4-18.3,7.3-44.6,8.8-79c0-29.9,0-59.8,0-89.7h19.5C202.7,178.2,202.7,208.1,202.7,238z"/>
<polygon class="st1" points="254.7,204.4 248.9,194.2 192.5,226.9 198.3,237 "/>
<polygon class="st1" points="189.2,199.9 195.1,189.8 138.6,157.2 132.8,167.3 "/>
<ellipse class="st1" cx="193" cy="148.3" rx="9.7" ry="9.8"/>
<ellipse class="st1" cx="251.8" cy="199.3" rx="5.8" ry="5.9"/>
<ellipse class="st1" cx="135.8" cy="162.3" rx="5.8" ry="5.9"/>
</svg>
